# xmcd
#
# Track frame offsets: 
#        150
#        16303
#        25661
#        40171
#        51957
#        68931
#        76549
#        84258
#        99738
#        109499
#        120677
#        134292
#
# Disc length: 1823 seconds
#
# Revision: 0
# Processed by: cddbd v1.5.1PL0 Copyright (c) Steve Scherf et al.
# Submitted via: ExactAudioCopy v0.95a5
#
DISCID=93071d0c
DTITLE=Killwhitneydead - So Pretty So Plastic
DYEAR=2005
DGENRE=Metal
TTITLE0=The Age Old Dilemma Of Romance Vs. Retribution
TTITLE1=Save Your Sermons For Sunday So I Can Sleep This Night Off
TTITLE2=If I Told You I Loved You Would I Get It Any Faster?
TTITLE3=Murder Nouveau (It's All The Rage)
TTITLE4=I'm Heavy Metal, But I Get The Blues Like Everyone Else
TTITLE5=You Smell Excited
TTITLE6=Pretty With The Lights Off
TTITLE7=One Match and A Gallon Of Gasoline
TTITLE8=I Wouldnt Kick Her Out Of Bed For Eating Crackers
TTITLE9=Liars Like You Live The Shortest Lives (An Open Letter To Impo
TTITLE9=sters)
TTITLE10=Put Your Mouth Where The Money Is
TTITLE11=33 Seconds Of Sanity
EXTD=
EXTT0=
EXTT1=
EXTT2=
EXTT3=
EXTT4=
EXTT5=
EXTT6=
EXTT7=
EXTT8=
EXTT9=
EXTT10=
EXTT11=
PLAYORDER=
